<svg xmlns="http://www.w3.org/2000/svg" xmlns:xlink="http://www.w3.org/1999/xlink" id="visual" width="960" height="540" version="1.1" viewBox="0 0 960 540"><g><g><path fill="#4F46E5" d="M0 -78.5L68 -39.2L68 39.2L0 78.5L-68 39.2L-68 -39.2Z" transform="translate(73 469)"/></g><g><path fill="#4F46E5" d="M0 -48L41.6 -24L41.6 24L0 48L-41.6 24L-41.6 -24Z" transform="translate(63 217)"/></g><g><path fill="#4F46E5" d="M0 -65L56.3 -32.5L56.3 32.5L0 65L-56.3 32.5L-56.3 -32.5Z" transform="translate(610 487)"/></g><g><path fill="#4F46E5" d="M0 -59L51.1 -29.5L51.1 29.5L0 59L-51.1 29.5L-51.1 -29.5Z" transform="translate(451 522)"/></g><g><path fill="#4F46E5" d="M0 -56L48.5 -28L48.5 28L0 56L-48.5 28L-48.5 -28Z" transform="translate(947 76)"/></g><g><path fill="#4F46E5" d="M0 -38L32.9 -19L32.9 19L0 38L-32.9 19L-32.9 -19Z" transform="translate(699 248)"/></g><g><path fill="#4F46E5" d="M0 -58L50.2 -29L50.2 29L0 58L-50.2 29L-50.2 -29Z" transform="translate(588 13)"/></g><g><path fill="#4F46E5" d="M0 -77L66.7 -38.5L66.7 38.5L0 77L-66.7 38.5L-66.7 -38.5Z" transform="translate(290 96)"/></g><g><path fill="#4F46E5" d="M0 -57L49.4 -28.5L49.4 28.5L0 57L-49.4 28.5L-49.4 -28.5Z" transform="translate(110 48)"/></g><g><path fill="#4F46E5" d="M0 -69L59.8 -34.5L59.8 34.5L0 69L-59.8 34.5L-59.8 -34.5Z" transform="translate(441 143)"/></g><g><path fill="#4F46E5" d="M0 -75L65 -37.5L65 37.5L0 75L-65 37.5L-65 -37.5Z" transform="translate(247 420)"/></g><g><path fill="#4F46E5" d="M0 -64L55.4 -32L55.4 32L0 64L-55.4 32L-55.4 -32Z" transform="translate(848 535)"/></g><g><path fill="#4F46E5" d="M0 -67L58 -33.5L58 33.5L0 67L-58 33.5L-58 -33.5Z" transform="translate(866 261)"/></g></g></svg>