<svg xmlns="http://www.w3.org/2000/svg" xmlns:xlink="http://www.w3.org/1999/xlink" id="visual" width="960" height="540" version="1.1" viewBox="0 0 960 540"><path fill="#818cf8" d="M0 312L20 321C40 330 80 348 120 353.2C160 358.3 200 350.7 240 341.3C280 332 320 321 360 317.3C400 313.7 440 317.3 480 325.8C520 334.3 560 347.7 600 348.2C640 348.7 680 336.3 720 337C760 337.7 800 351.3 840 347.2C880 343 920 321 940 310L960 299L960 541L940 541C920 541 880 541 840 541C800 541 760 541 720 541C680 541 640 541 600 541C560 541 520 541 480 541C440 541 400 541 360 541C320 541 280 541 240 541C200 541 160 541 120 541C80 541 40 541 20 541L0 541Z"/><path fill="#7178ed" d="M0 337L20 350.2C40 363.3 80 389.7 120 402C160 414.3 200 412.7 240 405.3C280 398 320 385 360 381.3C400 377.7 440 383.3 480 375C520 366.7 560 344.3 600 332C640 319.7 680 317.3 720 327.3C760 337.3 800 359.7 840 366.2C880 372.7 920 363.3 940 358.7L960 354L960 541L940 541C920 541 880 541 840 541C800 541 760 541 720 541C680 541 640 541 600 541C560 541 520 541 480 541C440 541 400 541 360 541C320 541 280 541 240 541C200 541 160 541 120 541C80 541 40 541 20 541L0 541Z"/><path fill="#6163e2" d="M0 362L20 370.3C40 378.7 80 395.3 120 405.7C160 416 200 420 240 423C280 426 320 428 360 420.8C400 413.7 440 397.3 480 399.3C520 401.3 560 421.7 600 420.8C640 420 680 398 720 394C760 390 800 404 840 414.8C880 425.7 920 433.3 940 437.2L960 441L960 541L940 541C920 541 880 541 840 541C800 541 760 541 720 541C680 541 640 541 600 541C560 541 520 541 480 541C440 541 400 541 360 541C320 541 280 541 240 541C200 541 160 541 120 541C80 541 40 541 20 541L0 541Z"/><path fill="#524ed6" d="M0 443L20 449.3C40 455.7 80 468.3 120 465.3C160 462.3 200 443.7 240 433.7C280 423.7 320 422.3 360 427.3C400 432.3 440 443.7 480 447C520 450.3 560 445.7 600 437.8C640 430 680 419 720 414.2C760 409.3 800 410.7 840 422.2C880 433.7 920 455.3 940 466.2L960 477L960 541L940 541C920 541 880 541 840 541C800 541 760 541 720 541C680 541 640 541 600 541C560 541 520 541 480 541C440 541 400 541 360 541C320 541 280 541 240 541C200 541 160 541 120 541C80 541 40 541 20 541L0 541Z"/><path fill="#4338ca" d="M0 462L20 463.2C40 464.3 80 466.7 120 466.7C160 466.7 200 464.3 240 469C280 473.7 320 485.3 360 485.3C400 485.3 440 473.7 480 475.2C520 476.7 560 491.3 600 495.5C640 499.7 680 493.3 720 488.3C760 483.3 800 479.7 840 476.5C880 473.3 920 470.7 940 469.3L960 468L960 541L940 541C920 541 880 541 840 541C800 541 760 541 720 541C680 541 640 541 600 541C560 541 520 541 480 541C440 541 400 541 360 541C320 541 280 541 240 541C200 541 160 541 120 541C80 541 40 541 20 541L0 541Z"/></svg>